<svg xmlns="http://www.w3.org/2000/svg" viewBox="0 0 72 72"> <defs> <style>.cls-1{fill:#fff;}.cls-2{fill:#168bcd;}.cls-3{fill:#589ad3;}.cls-4{fill:#72c068;}</style> </defs> <title>analytics-icon</title> <g id="Layer_2"> <g id="Layer_1-2"> <circle class="cls-1" cx="36" cy="36" r="36"></circle> <polygon class="cls-2" points="18.81 48.31 18.84 48.29 18.81 48.29 18.81 48.31"></polygon> <polygon class="cls-2" points="18.84 48.29 18.81 48.31 15.49 51.63 18.81 51.63 56.53 51.63 56.53 48.29 18.84 48.29"></polygon> <polygon class="cls-3" points="15.47 20.37 15.47 35.64 15.47 48.29 15.47 51.63 15.49 51.63 18.81 48.31 18.81 48.29 18.81 38.99 18.81 20.37 15.47 20.37"></polygon> <polygon class="cls-4" points="53.53 35.8 43.7 25.97 39.85 29.82 32.69 22.66 32.69 22.66 21.68 33.66 21.68 35.8 21.68 44.03 21.68 45.51 53.53 45.51 53.53 35.8"></polygon> </g> </g> </svg>