<?xml version="1.0" encoding="utf-8"?>
<!-- Generator: Adobe Illustrator 22.0.1, SVG Export Plug-In . SVG Version: 6.00 Build 0)  -->
<svg version="1.1" id="Layer_1" xmlns="http://www.w3.org/2000/svg" xmlns:xlink="http://www.w3.org/1999/xlink" x="0px" y="0px"
	 viewBox="0 0 612 792" style="enable-background:new 0 0 612 792;" xml:space="preserve">
<style type="text/css">
	.st0{opacity:0.22;clip-path:url(#SVGID_2_);}
	.st1{fill:#599BD3;}
	.st2{fill:#136DB4;}
	.st3{fill:#72C16A;}
</style>
<g>
	<defs>
		<rect id="SVGID_1_" x="0.1" y="0.1" width="612.5" height="792"/>
	</defs>
	<clipPath id="SVGID_2_">
		<use xlink:href="#SVGID_1_"  style="overflow:visible;"/>
	</clipPath>
	<g class="st0">
		<g>
			<g>
				<g>
					<g>
						<polygon class="st1" points="119.8,-14.2 98.1,-14.2 118.4,6.4 121.2,9.3 142.8,9.3 142.8,9.3 						"/>
						<polygon class="st2" points="121.2,9.3 118.4,12.2 98.1,32.8 119.8,32.8 142.8,9.3 121.2,9.3 						"/>
						<polygon class="st3" points="93.3,30.3 113.9,9.3 93.3,-11.7 72.8,9.3 						"/>
					</g>
				</g>
				<g>
					<g>
						<polygon class="st1" points="193.6,-14.2 171.9,-14.2 192.1,6.4 194.9,9.3 216.6,9.3 216.6,9.3 						"/>
						<polygon class="st2" points="194.9,9.3 192.1,12.2 171.9,32.8 193.6,32.8 216.6,9.3 194.9,9.3 						"/>
						<polygon class="st3" points="167.1,30.3 187.6,9.3 167.1,-11.7 146.5,9.3 						"/>
					</g>
				</g>
				<g>
					<g>
						<polygon class="st1" points="267.3,-14.2 245.7,-14.2 265.9,6.4 268.7,9.3 290.3,9.3 290.3,9.3 						"/>
						<polygon class="st2" points="268.7,9.3 265.9,12.2 245.7,32.8 267.3,32.8 290.3,9.3 268.7,9.3 						"/>
						<polygon class="st3" points="240.8,30.3 261.4,9.3 240.8,-11.7 220.3,9.3 						"/>
					</g>
				</g>
				<g>
					<g>
						<polygon class="st1" points="341.1,-14.2 319.4,-14.2 339.6,6.4 342.4,9.3 364.1,9.3 364.1,9.3 						"/>
						<polygon class="st2" points="342.4,9.3 339.6,12.2 319.4,32.8 341.1,32.8 364.1,9.3 342.4,9.3 						"/>
						<polygon class="st3" points="314.6,30.3 335.1,9.3 314.6,-11.7 294,9.3 						"/>
					</g>
				</g>
				<g>
					<g>
						<polygon class="st1" points="414.8,-14.2 393.2,-14.2 413.4,6.4 416.2,9.3 437.8,9.3 437.9,9.3 						"/>
						<polygon class="st2" points="416.2,9.3 413.4,12.2 393.2,32.8 414.8,32.8 437.8,9.3 416.2,9.3 						"/>
						<polygon class="st3" points="388.3,30.3 408.9,9.3 388.3,-11.7 367.8,9.3 						"/>
					</g>
				</g>
				<g>
					<g>
						<polygon class="st1" points="488.6,-14.2 466.9,-14.2 487.1,6.4 489.9,9.3 511.6,9.3 511.6,9.3 						"/>
						<polygon class="st2" points="489.9,9.3 487.1,12.2 466.9,32.8 488.6,32.8 511.6,9.3 489.9,9.3 						"/>
						<polygon class="st3" points="462.1,30.3 482.6,9.3 462.1,-11.7 441.5,9.3 						"/>
					</g>
				</g>
				<g>
					<g>
						<polygon class="st1" points="561.7,-14.2 540.1,-14.2 560.3,6.4 563.1,9.3 584.8,9.3 584.8,9.3 						"/>
						<polygon class="st2" points="563.1,9.3 560.3,12.2 540.1,32.8 561.7,32.8 584.8,9.3 563.1,9.3 						"/>
						<polygon class="st3" points="535.2,30.3 555.8,9.3 535.2,-11.7 514.7,9.3 						"/>
					</g>
				</g>
				<g>
					<g>
						<polygon class="st1" points="45.2,-14.2 23.5,-14.2 43.7,6.4 46.5,9.3 68.2,9.3 68.2,9.3 						"/>
						<polygon class="st2" points="46.5,9.3 43.7,12.2 23.5,32.8 45.1,32.8 68.2,9.3 46.5,9.3 						"/>
						<polygon class="st3" points="18.6,30.3 39.2,9.3 18.6,-11.7 -1.9,9.3 						"/>
					</g>
				</g>
				<g>
					<g>
						<polygon class="st1" points="637.7,-14.2 616.1,-14.2 636.3,6.4 639.1,9.3 660.8,9.3 660.8,9.3 						"/>
						<polygon class="st2" points="639.1,9.3 636.3,12.2 616.1,32.8 637.7,32.8 660.8,9.3 639.1,9.3 						"/>
						<polygon class="st3" points="611.2,30.3 631.8,9.3 611.2,-11.7 590.7,9.3 						"/>
					</g>
				</g>
				<g>
					<g>
						<polygon class="st1" points="84.2,33.7 62.5,33.7 82.7,54.3 85.5,57.2 107.2,57.2 107.2,57.2 						"/>
						<polygon class="st2" points="85.5,57.2 82.7,60 62.5,80.7 84.1,80.7 107.2,57.2 85.5,57.2 						"/>
						<polygon class="st3" points="57.6,78.2 78.2,57.2 57.6,36.2 37.1,57.2 						"/>
					</g>
				</g>
				<g>
					<g>
						<polygon class="st1" points="46.2,81.4 24.5,81.4 44.7,102 47.5,104.9 69.2,104.9 69.2,104.9 						"/>
						<polygon class="st2" points="47.5,104.9 44.7,107.7 24.5,128.3 46.1,128.3 69.2,104.9 47.5,104.9 						"/>
						<polygon class="st3" points="19.6,125.8 40.2,104.9 19.6,83.9 -0.9,104.9 						"/>
					</g>
				</g>
				<g>
					<g>
						<polygon class="st1" points="157.6,33.7 135.9,33.7 156.1,54.3 158.9,57.2 180.6,57.2 180.6,57.2 						"/>
						<polygon class="st2" points="158.9,57.2 156.1,60 135.9,80.7 157.6,80.7 180.6,57.2 158.9,57.2 						"/>
						<polygon class="st3" points="131.1,78.2 151.7,57.2 131.1,36.2 110.5,57.2 						"/>
					</g>
				</g>
				<g>
					<g>
						<polygon class="st1" points="231.4,33.7 209.7,33.7 229.9,54.3 232.7,57.2 254.4,57.2 254.4,57.2 						"/>
						<polygon class="st2" points="232.7,57.2 229.9,60 209.7,80.7 231.3,80.7 254.4,57.2 232.7,57.2 						"/>
						<polygon class="st3" points="204.8,78.2 225.4,57.2 204.8,36.2 184.3,57.2 						"/>
					</g>
				</g>
				<g>
					<g>
						<polygon class="st1" points="305.1,33.7 283.4,33.7 303.6,54.3 306.5,57.2 328.1,57.2 328.1,57.2 						"/>
						<polygon class="st2" points="306.5,57.2 303.6,60 283.4,80.7 305.1,80.7 328.1,57.2 306.5,57.2 						"/>
						<polygon class="st3" points="278.6,78.2 299.2,57.2 278.6,36.2 258,57.2 						"/>
					</g>
				</g>
				<g>
					<g>
						<polygon class="st1" points="378.9,33.7 357.2,33.7 377.4,54.3 380.2,57.2 401.9,57.2 401.9,57.2 						"/>
						<polygon class="st2" points="380.2,57.2 377.4,60 357.2,80.7 378.8,80.7 401.9,57.2 380.2,57.2 						"/>
						<polygon class="st3" points="352.4,78.2 372.9,57.2 352.4,36.2 331.8,57.2 						"/>
					</g>
				</g>
				<g>
					<g>
						<polygon class="st1" points="452.6,33.7 430.9,33.7 451.2,54.3 454,57.2 475.6,57.2 475.6,57.2 						"/>
						<polygon class="st2" points="454,57.2 451.2,60 430.9,80.7 452.6,80.7 475.6,57.2 454,57.2 						"/>
						<polygon class="st3" points="426.1,78.2 446.7,57.2 426.1,36.2 405.5,57.2 						"/>
					</g>
				</g>
				<g>
					<g>
						<polygon class="st1" points="526.4,33.7 504.7,33.7 524.9,54.3 527.7,57.2 549.4,57.2 549.4,57.2 						"/>
						<polygon class="st2" points="527.7,57.2 524.9,60 504.7,80.7 526.4,80.7 549.4,57.2 527.7,57.2 						"/>
						<polygon class="st3" points="499.9,78.2 520.4,57.2 499.9,36.2 479.3,57.2 						"/>
					</g>
				</g>
				<g>
					<g>
						<polygon class="st1" points="599.5,33.7 577.8,33.7 598.1,54.3 600.9,57.2 622.5,57.2 622.5,57.2 						"/>
						<polygon class="st2" points="600.9,57.2 598.1,60 577.8,80.7 599.5,80.7 622.5,57.2 600.9,57.2 						"/>
						<polygon class="st3" points="573,78.2 593.6,57.2 573,36.2 552.5,57.2 						"/>
					</g>
				</g>
				<g>
					<g>
						<polygon class="st1" points="119.8,81.4 98.1,81.4 118.4,102 121.2,104.9 142.8,104.9 142.8,104.9 						"/>
						<polygon class="st2" points="121.2,104.9 118.4,107.7 98.1,128.3 119.8,128.3 142.8,104.9 121.2,104.9 						"/>
						<polygon class="st3" points="93.3,125.8 113.9,104.9 93.3,83.9 72.8,104.9 						"/>
					</g>
				</g>
				<g>
					<g>
						<polygon class="st1" points="193.6,81.4 171.9,81.4 192.1,102 194.9,104.9 216.6,104.9 216.6,104.9 						"/>
						<polygon class="st2" points="194.9,104.9 192.1,107.7 171.9,128.3 193.6,128.3 216.6,104.9 194.9,104.9 						"/>
						<polygon class="st3" points="167.1,125.8 187.6,104.9 167.1,83.9 146.5,104.9 						"/>
					</g>
				</g>
				<g>
					<g>
						<polygon class="st1" points="267.3,81.4 245.7,81.4 265.9,102 268.7,104.9 290.3,104.9 290.3,104.9 						"/>
						<polygon class="st2" points="268.7,104.9 265.9,107.7 245.7,128.3 267.3,128.3 290.3,104.9 268.7,104.9 						"/>
						<polygon class="st3" points="240.8,125.8 261.4,104.9 240.8,83.9 220.3,104.9 						"/>
					</g>
				</g>
				<g>
					<g>
						<polygon class="st1" points="341.1,81.4 319.4,81.4 339.6,102 342.4,104.9 364.1,104.9 364.1,104.9 						"/>
						<polygon class="st2" points="342.4,104.9 339.6,107.7 319.4,128.3 341.1,128.3 364.1,104.9 342.4,104.9 						"/>
						<polygon class="st3" points="314.6,125.8 335.1,104.9 314.6,83.9 294,104.9 						"/>
					</g>
				</g>
				<g>
					<g>
						<polygon class="st1" points="414.8,81.4 393.2,81.4 413.4,102 416.2,104.9 437.8,104.9 437.9,104.9 						"/>
						<polygon class="st2" points="416.2,104.9 413.4,107.7 393.2,128.3 414.8,128.3 437.8,104.9 416.2,104.9 						"/>
						<polygon class="st3" points="388.3,125.8 408.9,104.9 388.3,83.9 367.8,104.9 						"/>
					</g>
				</g>
				<g>
					<g>
						<polygon class="st1" points="488.6,81.4 466.9,81.4 487.1,102 489.9,104.9 511.6,104.9 511.6,104.9 						"/>
						<polygon class="st2" points="489.9,104.9 487.1,107.7 466.9,128.3 488.6,128.3 511.6,104.9 489.9,104.9 						"/>
						<polygon class="st3" points="462.1,125.8 482.6,104.9 462.1,83.9 441.5,104.9 						"/>
					</g>
				</g>
				<g>
					<g>
						<polygon class="st1" points="561.7,81.4 540.1,81.4 560.3,102 563.1,104.9 584.8,104.9 584.8,104.9 						"/>
						<polygon class="st2" points="563.1,104.9 560.3,107.7 540.1,128.3 561.7,128.3 584.8,104.9 563.1,104.9 						"/>
						<polygon class="st3" points="535.2,125.8 555.8,104.9 535.2,83.9 514.7,104.9 						"/>
					</g>
				</g>
				<g>
					<g>
						<polygon class="st1" points="635.7,81.4 614.1,81.4 634.3,102 637.1,104.9 658.8,104.9 658.8,104.9 						"/>
						<polygon class="st2" points="637.1,104.9 634.3,107.7 614.1,128.3 635.7,128.3 658.8,104.9 637.1,104.9 						"/>
						<polygon class="st3" points="609.2,125.8 629.8,104.9 609.2,83.9 588.7,104.9 						"/>
					</g>
				</g>
				<g>
					<g>
						<polygon class="st1" points="674.1,33.7 652.4,33.7 672.6,54.3 675.4,57.2 697.1,57.2 697.1,57.2 						"/>
						<polygon class="st2" points="675.4,57.2 672.6,60 652.4,80.7 674.1,80.7 697.1,57.2 675.4,57.2 						"/>
						<polygon class="st3" points="647.6,78.2 668.1,57.2 647.6,36.2 627,57.2 						"/>
					</g>
				</g>
				<g>
					<g>
						<polygon class="st1" points="9.2,33.7 -12.5,33.7 7.7,54.3 10.5,57.2 32.2,57.2 32.2,57.2 						"/>
						<polygon class="st2" points="10.5,57.2 7.7,60 -12.5,80.7 9.1,80.7 32.2,57.2 10.5,57.2 						"/>
						<polygon class="st3" points="-17.3,78.2 3.2,57.2 -17.3,36.2 -37.9,57.2 						"/>
					</g>
				</g>
				<g>
					<g>
						<polygon class="st1" points="9.2,129.7 -12.5,129.7 7.7,150.3 10.5,153.2 32.2,153.2 32.2,153.2 						"/>
						<polygon class="st2" points="10.5,153.2 7.7,156 -12.5,176.7 9.1,176.7 32.2,153.2 10.5,153.2 						"/>
						<polygon class="st3" points="-17.3,174.2 3.2,153.2 -17.3,132.2 -37.9,153.2 						"/>
					</g>
				</g>
				<g>
					<g>
						<polygon class="st1" points="9.2,226.4 -12.5,226.4 7.7,247 10.5,249.8 32.2,249.8 32.2,249.8 						"/>
						<polygon class="st2" points="10.5,249.8 7.7,252.7 -12.5,273.3 9.1,273.3 32.2,249.8 10.5,249.8 						"/>
						<polygon class="st3" points="-17.3,270.8 3.2,249.8 -17.3,228.9 -37.9,249.8 						"/>
					</g>
				</g>
			</g>
			<g>
				<g>
					<g>
						<polygon class="st1" points="157.2,129.2 135.5,129.2 155.7,149.8 158.5,152.6 180.2,152.6 180.2,152.6 						"/>
						<polygon class="st2" points="158.5,152.6 155.7,155.5 135.5,176.1 157.1,176.1 180.2,152.6 158.5,152.6 						"/>
						<polygon class="st3" points="130.7,173.6 151.2,152.6 130.7,131.7 110.1,152.6 						"/>
					</g>
				</g>
				<g>
					<g>
						<polygon class="st1" points="230.9,129.2 209.2,129.2 229.4,149.8 232.3,152.6 253.9,152.6 253.9,152.6 						"/>
						<polygon class="st2" points="232.3,152.6 229.4,155.5 209.2,176.1 230.9,176.1 253.9,152.6 232.3,152.6 						"/>
						<polygon class="st3" points="204.4,173.6 225,152.6 204.4,131.7 183.8,152.6 						"/>
					</g>
				</g>
				<g>
					<g>
						<polygon class="st1" points="304.7,129.2 283,129.2 303.2,149.8 306,152.6 327.7,152.6 327.7,152.6 						"/>
						<polygon class="st2" points="306,152.6 303.2,155.5 283,176.1 304.7,176.1 327.7,152.6 306,152.6 						"/>
						<polygon class="st3" points="278.2,173.6 298.7,152.6 278.2,131.7 257.6,152.6 						"/>
					</g>
				</g>
				<g>
					<g>
						<polygon class="st1" points="378.4,129.2 356.7,129.2 377,149.8 379.8,152.6 401.4,152.6 401.4,152.6 						"/>
						<polygon class="st2" points="379.8,152.6 377,155.5 356.7,176.1 378.4,176.1 401.4,152.6 379.8,152.6 						"/>
						<polygon class="st3" points="351.9,173.6 372.5,152.6 351.9,131.7 331.3,152.6 						"/>
					</g>
				</g>
				<g>
					<g>
						<polygon class="st1" points="452.2,129.2 430.5,129.2 450.7,149.8 453.5,152.6 475.2,152.6 475.2,152.6 						"/>
						<polygon class="st2" points="453.5,152.6 450.7,155.5 430.5,176.1 452.2,176.1 475.2,152.6 453.5,152.6 						"/>
						<polygon class="st3" points="425.7,173.6 446.2,152.6 425.7,131.7 405.1,152.6 						"/>
					</g>
				</g>
				<g>
					<g>
						<polygon class="st1" points="525.9,129.2 504.2,129.2 524.5,149.8 527.3,152.6 548.9,152.6 548.9,152.6 						"/>
						<polygon class="st2" points="527.3,152.6 524.5,155.5 504.2,176.1 525.9,176.1 548.9,152.6 527.3,152.6 						"/>
						<polygon class="st3" points="499.4,173.6 520,152.6 499.4,131.7 478.9,152.6 						"/>
					</g>
				</g>
				<g>
					<g>
						<polygon class="st1" points="599.1,129.2 577.4,129.2 597.6,149.8 600.4,152.6 622.1,152.6 622.1,152.6 						"/>
						<polygon class="st2" points="600.4,152.6 597.6,155.5 577.4,176.1 599.1,176.1 622.1,152.6 600.4,152.6 						"/>
						<polygon class="st3" points="572.6,173.6 593.1,152.6 572.6,131.7 552,152.6 						"/>
					</g>
				</g>
				<g>
					<g>
						<polygon class="st1" points="82.5,129.2 60.8,129.2 81,149.8 83.8,152.6 105.5,152.6 105.5,152.6 						"/>
						<polygon class="st2" points="83.8,152.6 81,155.5 60.8,176.1 82.5,176.1 105.5,152.6 83.8,152.6 						"/>
						<polygon class="st3" points="56,173.6 76.5,152.6 56,131.7 35.4,152.6 						"/>
					</g>
				</g>
				<g>
					<g>
						<polygon class="st1" points="121.5,177 99.8,177 120,197.7 122.8,200.5 144.5,200.5 144.5,200.5 						"/>
						<polygon class="st2" points="122.8,200.5 120,203.4 99.8,224 121.5,224 144.5,200.5 122.8,200.5 						"/>
						<polygon class="st3" points="95,221.5 115.5,200.5 95,179.5 74.4,200.5 						"/>
					</g>
				</g>
				<g>
					<g>
						<polygon class="st1" points="83.5,224.7 61.8,224.7 82,245.3 84.8,248.2 106.5,248.2 106.5,248.2 						"/>
						<polygon class="st2" points="84.8,248.2 82,251.1 61.8,271.7 83.5,271.7 106.5,248.2 84.8,248.2 						"/>
						<polygon class="st3" points="57,269.2 77.5,248.2 57,227.2 36.4,248.2 						"/>
					</g>
				</g>
				<g>
					<g>
						<polygon class="st1" points="194.9,177 173.3,177 193.5,197.7 196.3,200.5 217.9,200.5 218,200.5 						"/>
						<polygon class="st2" points="196.3,200.5 193.5,203.4 173.3,224 194.9,224 217.9,200.5 196.3,200.5 						"/>
						<polygon class="st3" points="168.4,221.5 189,200.5 168.4,179.5 147.9,200.5 						"/>
					</g>
				</g>
				<g>
					<g>
						<polygon class="st1" points="268.7,177 247,177 267.2,197.7 270,200.5 291.7,200.5 291.7,200.5 						"/>
						<polygon class="st2" points="270,200.5 267.2,203.4 247,224 268.7,224 291.7,200.5 270,200.5 						"/>
						<polygon class="st3" points="242.2,221.5 262.7,200.5 242.2,179.5 221.6,200.5 						"/>
					</g>
				</g>
				<g>
					<g>
						<polygon class="st1" points="342.4,177 320.8,177 341,197.7 343.8,200.5 365.5,200.5 365.5,200.5 						"/>
						<polygon class="st2" points="343.8,200.5 341,203.4 320.8,224 342.4,224 365.5,200.5 343.8,200.5 						"/>
						<polygon class="st3" points="315.9,221.5 336.5,200.5 315.9,179.5 295.4,200.5 						"/>
					</g>
				</g>
				<g>
					<g>
						<polygon class="st1" points="416.2,177 394.5,177 414.7,197.7 417.5,200.5 439.2,200.5 439.2,200.5 						"/>
						<polygon class="st2" points="417.5,200.5 414.7,203.4 394.5,224 416.2,224 439.2,200.5 417.5,200.5 						"/>
						<polygon class="st3" points="389.7,221.5 410.3,200.5 389.7,179.5 369.1,200.5 						"/>
					</g>
				</g>
				<g>
					<g>
						<polygon class="st1" points="489.9,177 468.3,177 488.5,197.7 491.3,200.5 513,200.5 513,200.5 						"/>
						<polygon class="st2" points="491.3,200.5 488.5,203.4 468.3,224 489.9,224 513,200.5 491.3,200.5 						"/>
						<polygon class="st3" points="463.4,221.5 484,200.5 463.4,179.5 442.9,200.5 						"/>
					</g>
				</g>
				<g>
					<g>
						<polygon class="st1" points="563.7,177 542,177 562.2,197.7 565,200.5 586.7,200.5 586.7,200.5 						"/>
						<polygon class="st2" points="565,200.5 562.2,203.4 542,224 563.7,224 586.7,200.5 565,200.5 						"/>
						<polygon class="st3" points="537.2,221.5 557.8,200.5 537.2,179.5 516.6,200.5 						"/>
					</g>
				</g>
				<g>
					<g>
						<polygon class="st1" points="636.9,177 615.2,177 635.4,197.7 638.2,200.5 659.9,200.5 659.9,200.5 						"/>
						<polygon class="st2" points="638.2,200.5 635.4,203.4 615.2,224 636.8,224 659.9,200.5 638.2,200.5 						"/>
						<polygon class="st3" points="610.3,221.5 630.9,200.5 610.3,179.5 589.8,200.5 						"/>
					</g>
				</g>
				<g>
					<g>
						<polygon class="st1" points="157.2,224.7 135.5,224.7 155.7,245.3 158.5,248.2 180.2,248.2 180.2,248.2 						"/>
						<polygon class="st2" points="158.5,248.2 155.7,251.1 135.5,271.7 157.1,271.7 180.2,248.2 158.5,248.2 						"/>
						<polygon class="st3" points="130.7,269.2 151.2,248.2 130.7,227.2 110.1,248.2 						"/>
					</g>
				</g>
				<g>
					<g>
						<polygon class="st1" points="230.9,224.7 209.2,224.7 229.4,245.3 232.3,248.2 253.9,248.2 253.9,248.2 						"/>
						<polygon class="st2" points="232.3,248.2 229.4,251.1 209.2,271.7 230.9,271.7 253.9,248.2 232.3,248.2 						"/>
						<polygon class="st3" points="204.4,269.2 225,248.2 204.4,227.2 183.8,248.2 						"/>
					</g>
				</g>
				<g>
					<g>
						<polygon class="st1" points="304.7,224.7 283,224.7 303.2,245.3 306,248.2 327.7,248.2 327.7,248.2 						"/>
						<polygon class="st2" points="306,248.2 303.2,251.1 283,271.7 304.7,271.7 327.7,248.2 306,248.2 						"/>
						<polygon class="st3" points="278.2,269.2 298.7,248.2 278.2,227.2 257.6,248.2 						"/>
					</g>
				</g>
				<g>
					<g>
						<polygon class="st1" points="378.4,224.7 356.7,224.7 377,245.3 379.8,248.2 401.4,248.2 401.4,248.2 						"/>
						<polygon class="st2" points="379.8,248.2 377,251.1 356.7,271.7 378.4,271.7 401.4,248.2 379.8,248.2 						"/>
						<polygon class="st3" points="351.9,269.2 372.5,248.2 351.9,227.2 331.3,248.2 						"/>
					</g>
				</g>
				<g>
					<g>
						<polygon class="st1" points="452.2,224.7 430.5,224.7 450.7,245.3 453.5,248.2 475.2,248.2 475.2,248.2 						"/>
						<polygon class="st2" points="453.5,248.2 450.7,251.1 430.5,271.7 452.2,271.7 475.2,248.2 453.5,248.2 						"/>
						<polygon class="st3" points="425.7,269.2 446.2,248.2 425.7,227.2 405.1,248.2 						"/>
					</g>
				</g>
				<g>
					<g>
						<polygon class="st1" points="525.9,224.7 504.2,224.7 524.5,245.3 527.3,248.2 548.9,248.2 548.9,248.2 						"/>
						<polygon class="st2" points="527.3,248.2 524.5,251.1 504.2,271.7 525.9,271.7 548.9,248.2 527.3,248.2 						"/>
						<polygon class="st3" points="499.4,269.2 520,248.2 499.4,227.2 478.9,248.2 						"/>
					</g>
				</g>
				<g>
					<g>
						<polygon class="st1" points="599.1,224.7 577.4,224.7 597.6,245.3 600.4,248.2 622.1,248.2 622.1,248.2 						"/>
						<polygon class="st2" points="600.4,248.2 597.6,251.1 577.4,271.7 599.1,271.7 622.1,248.2 600.4,248.2 						"/>
						<polygon class="st3" points="572.6,269.2 593.1,248.2 572.6,227.2 552,248.2 						"/>
					</g>
				</g>
				<g>
					<g>
						<polygon class="st1" points="673.1,224.7 651.4,224.7 671.6,245.3 674.4,248.2 696.1,248.2 696.1,248.2 						"/>
						<polygon class="st2" points="674.4,248.2 671.6,251.1 651.4,271.7 673.1,271.7 696.1,248.2 674.4,248.2 						"/>
						<polygon class="st3" points="646.6,269.2 667.1,248.2 646.6,227.2 626,248.2 						"/>
					</g>
				</g>
				<g>
					<g>
						<polygon class="st1" points="48.2,177 26.5,177 46.7,197.7 49.5,200.5 71.2,200.5 71.2,200.5 						"/>
						<polygon class="st2" points="49.5,200.5 46.7,203.4 26.5,224 48.1,224 71.2,200.5 49.5,200.5 						"/>
						<polygon class="st3" points="21.7,221.5 42.2,200.5 21.7,179.5 1.1,200.5 						"/>
					</g>
				</g>
			</g>
		</g>
		<g>
			<g>
				<g>
					<g>
						<polygon class="st1" points="111.8,274.8 90.1,274.8 110.4,295.4 113.2,298.3 134.8,298.3 134.8,298.3 						"/>
						<polygon class="st2" points="113.2,298.3 110.4,301.2 90.1,321.8 111.8,321.8 134.8,298.3 113.2,298.3 						"/>
						<polygon class="st3" points="85.3,319.3 105.9,298.3 85.3,277.3 64.8,298.3 						"/>
					</g>
				</g>
				<g>
					<g>
						<polygon class="st1" points="185.6,274.8 163.9,274.8 184.1,295.4 186.9,298.3 208.6,298.3 208.6,298.3 						"/>
						<polygon class="st2" points="186.9,298.3 184.1,301.2 163.9,321.8 185.6,321.8 208.6,298.3 186.9,298.3 						"/>
						<polygon class="st3" points="159.1,319.3 179.6,298.3 159.1,277.3 138.5,298.3 						"/>
					</g>
				</g>
				<g>
					<g>
						<polygon class="st1" points="259.3,274.8 237.7,274.8 257.9,295.4 260.7,298.3 282.3,298.3 282.3,298.3 						"/>
						<polygon class="st2" points="260.7,298.3 257.9,301.2 237.7,321.8 259.3,321.8 282.3,298.3 260.7,298.3 						"/>
						<polygon class="st3" points="232.8,319.3 253.4,298.3 232.8,277.3 212.3,298.3 						"/>
					</g>
				</g>
				<g>
					<g>
						<polygon class="st1" points="333.1,274.8 311.4,274.8 331.6,295.4 334.4,298.3 356.1,298.3 356.1,298.3 						"/>
						<polygon class="st2" points="334.4,298.3 331.6,301.2 311.4,321.8 333.1,321.8 356.1,298.3 334.4,298.3 						"/>
						<polygon class="st3" points="306.6,319.3 327.1,298.3 306.6,277.3 286,298.3 						"/>
					</g>
				</g>
				<g>
					<g>
						<polygon class="st1" points="406.8,274.8 385.2,274.8 405.4,295.4 408.2,298.3 429.8,298.3 429.9,298.3 						"/>
						<polygon class="st2" points="408.2,298.3 405.4,301.2 385.2,321.8 406.8,321.8 429.8,298.3 408.2,298.3 						"/>
						<polygon class="st3" points="380.3,319.3 400.9,298.3 380.3,277.3 359.8,298.3 						"/>
					</g>
				</g>
				<g>
					<g>
						<polygon class="st1" points="480.6,274.8 458.9,274.8 479.1,295.4 481.9,298.3 503.6,298.3 503.6,298.3 						"/>
						<polygon class="st2" points="481.9,298.3 479.1,301.2 458.9,321.8 480.6,321.8 503.6,298.3 481.9,298.3 						"/>
						<polygon class="st3" points="454.1,319.3 474.6,298.3 454.1,277.3 433.5,298.3 						"/>
					</g>
				</g>
				<g>
					<g>
						<polygon class="st1" points="553.7,274.8 532.1,274.8 552.3,295.4 555.1,298.3 576.8,298.3 576.8,298.3 						"/>
						<polygon class="st2" points="555.1,298.3 552.3,301.2 532.1,321.8 553.7,321.8 576.8,298.3 555.1,298.3 						"/>
						<polygon class="st3" points="527.2,319.3 547.8,298.3 527.2,277.3 506.7,298.3 						"/>
					</g>
				</g>
				<g>
					<g>
						<polygon class="st1" points="37.2,274.8 15.5,274.8 35.7,295.4 38.5,298.3 60.2,298.3 60.2,298.3 						"/>
						<polygon class="st2" points="38.5,298.3 35.7,301.2 15.5,321.8 37.1,321.8 60.2,298.3 38.5,298.3 						"/>
						<polygon class="st3" points="10.6,319.3 31.2,298.3 10.6,277.3 -9.9,298.3 						"/>
					</g>
				</g>
				<g>
					<g>
						<polygon class="st1" points="629.7,274.8 608.1,274.8 628.3,295.4 631.1,298.3 652.8,298.3 652.8,298.3 						"/>
						<polygon class="st2" points="631.1,298.3 628.3,301.2 608.1,321.8 629.7,321.8 652.8,298.3 631.1,298.3 						"/>
						<polygon class="st3" points="603.2,319.3 623.8,298.3 603.2,277.3 582.7,298.3 						"/>
					</g>
				</g>
				<g>
					<g>
						<polygon class="st1" points="76.2,322.7 54.5,322.7 74.7,343.3 77.5,346.2 99.2,346.2 99.2,346.2 						"/>
						<polygon class="st2" points="77.5,346.2 74.7,349 54.5,369.7 76.1,369.7 99.2,346.2 77.5,346.2 						"/>
						<polygon class="st3" points="49.6,367.2 70.2,346.2 49.6,325.2 29.1,346.2 						"/>
					</g>
				</g>
				<g>
					<g>
						<polygon class="st1" points="38.2,370.4 16.5,370.4 36.7,391 39.5,393.9 61.2,393.9 61.2,393.9 						"/>
						<polygon class="st2" points="39.5,393.9 36.7,396.7 16.5,417.3 38.1,417.3 61.2,393.9 39.5,393.9 						"/>
						<polygon class="st3" points="11.6,414.8 32.2,393.9 11.6,372.9 -8.9,393.9 						"/>
					</g>
				</g>
				<g>
					<g>
						<polygon class="st1" points="149.6,322.7 127.9,322.7 148.1,343.3 150.9,346.2 172.6,346.2 172.6,346.2 						"/>
						<polygon class="st2" points="150.9,346.2 148.1,349 127.9,369.7 149.6,369.7 172.6,346.2 150.9,346.2 						"/>
						<polygon class="st3" points="123.1,367.2 143.7,346.2 123.1,325.2 102.5,346.2 						"/>
					</g>
				</g>
				<g>
					<g>
						<polygon class="st1" points="223.4,322.7 201.7,322.7 221.9,343.3 224.7,346.2 246.4,346.2 246.4,346.2 						"/>
						<polygon class="st2" points="224.7,346.2 221.9,349 201.7,369.7 223.3,369.7 246.4,346.2 224.7,346.2 						"/>
						<polygon class="st3" points="196.8,367.2 217.4,346.2 196.8,325.2 176.3,346.2 						"/>
					</g>
				</g>
				<g>
					<g>
						<polygon class="st1" points="297.1,322.7 275.4,322.7 295.6,343.3 298.5,346.2 320.1,346.2 320.1,346.2 						"/>
						<polygon class="st2" points="298.5,346.2 295.6,349 275.4,369.7 297.1,369.7 320.1,346.2 298.5,346.2 						"/>
						<polygon class="st3" points="270.6,367.2 291.2,346.2 270.6,325.2 250,346.2 						"/>
					</g>
				</g>
				<g>
					<g>
						<polygon class="st1" points="370.9,322.7 349.2,322.7 369.4,343.3 372.2,346.2 393.9,346.2 393.9,346.2 						"/>
						<polygon class="st2" points="372.2,346.2 369.4,349 349.2,369.7 370.8,369.7 393.9,346.2 372.2,346.2 						"/>
						<polygon class="st3" points="344.4,367.2 364.9,346.2 344.4,325.2 323.8,346.2 						"/>
					</g>
				</g>
				<g>
					<g>
						<polygon class="st1" points="444.6,322.7 422.9,322.7 443.2,343.3 446,346.2 467.6,346.2 467.6,346.2 						"/>
						<polygon class="st2" points="446,346.2 443.2,349 422.9,369.7 444.6,369.7 467.6,346.2 446,346.2 						"/>
						<polygon class="st3" points="418.1,367.2 438.7,346.2 418.1,325.2 397.5,346.2 						"/>
					</g>
				</g>
				<g>
					<g>
						<polygon class="st1" points="518.4,322.7 496.7,322.7 516.9,343.3 519.7,346.2 541.4,346.2 541.4,346.2 						"/>
						<polygon class="st2" points="519.7,346.2 516.9,349 496.7,369.7 518.4,369.7 541.4,346.2 519.7,346.2 						"/>
						<polygon class="st3" points="491.9,367.2 512.4,346.2 491.9,325.2 471.3,346.2 						"/>
					</g>
				</g>
				<g>
					<g>
						<polygon class="st1" points="591.5,322.7 569.8,322.7 590.1,343.3 592.9,346.2 614.5,346.2 614.5,346.2 						"/>
						<polygon class="st2" points="592.9,346.2 590.1,349 569.8,369.7 591.5,369.7 614.5,346.2 592.9,346.2 						"/>
						<polygon class="st3" points="565,367.2 585.6,346.2 565,325.2 544.5,346.2 						"/>
					</g>
				</g>
				<g>
					<g>
						<polygon class="st1" points="111.8,370.4 90.1,370.4 110.4,391 113.2,393.9 134.8,393.9 134.8,393.9 						"/>
						<polygon class="st2" points="113.2,393.9 110.4,396.7 90.1,417.3 111.8,417.3 134.8,393.9 113.2,393.9 						"/>
						<polygon class="st3" points="85.3,414.8 105.9,393.9 85.3,372.9 64.8,393.9 						"/>
					</g>
				</g>
				<g>
					<g>
						<polygon class="st1" points="185.6,370.4 163.9,370.4 184.1,391 186.9,393.9 208.6,393.9 208.6,393.9 						"/>
						<polygon class="st2" points="186.9,393.9 184.1,396.7 163.9,417.3 185.6,417.3 208.6,393.9 186.9,393.9 						"/>
						<polygon class="st3" points="159.1,414.8 179.6,393.9 159.1,372.9 138.5,393.9 						"/>
					</g>
				</g>
				<g>
					<g>
						<polygon class="st1" points="259.3,370.4 237.7,370.4 257.9,391 260.7,393.9 282.3,393.9 282.3,393.9 						"/>
						<polygon class="st2" points="260.7,393.9 257.9,396.7 237.7,417.3 259.3,417.3 282.3,393.9 260.7,393.9 						"/>
						<polygon class="st3" points="232.8,414.8 253.4,393.9 232.8,372.9 212.3,393.9 						"/>
					</g>
				</g>
				<g>
					<g>
						<polygon class="st1" points="333.1,370.4 311.4,370.4 331.6,391 334.4,393.9 356.1,393.9 356.1,393.9 						"/>
						<polygon class="st2" points="334.4,393.9 331.6,396.7 311.4,417.3 333.1,417.3 356.1,393.9 334.4,393.9 						"/>
						<polygon class="st3" points="306.6,414.8 327.1,393.9 306.6,372.9 286,393.9 						"/>
					</g>
				</g>
				<g>
					<g>
						<polygon class="st1" points="406.8,370.4 385.2,370.4 405.4,391 408.2,393.9 429.8,393.9 429.9,393.9 						"/>
						<polygon class="st2" points="408.2,393.9 405.4,396.7 385.2,417.3 406.8,417.3 429.8,393.9 408.2,393.9 						"/>
						<polygon class="st3" points="380.3,414.8 400.9,393.9 380.3,372.9 359.8,393.9 						"/>
					</g>
				</g>
				<g>
					<g>
						<polygon class="st1" points="480.6,370.4 458.9,370.4 479.1,391 481.9,393.9 503.6,393.9 503.6,393.9 						"/>
						<polygon class="st2" points="481.9,393.9 479.1,396.7 458.9,417.3 480.6,417.3 503.6,393.9 481.9,393.9 						"/>
						<polygon class="st3" points="454.1,414.8 474.6,393.9 454.1,372.9 433.5,393.9 						"/>
					</g>
				</g>
				<g>
					<g>
						<polygon class="st1" points="553.7,370.4 532.1,370.4 552.3,391 555.1,393.9 576.8,393.9 576.8,393.9 						"/>
						<polygon class="st2" points="555.1,393.9 552.3,396.7 532.1,417.3 553.7,417.3 576.8,393.9 555.1,393.9 						"/>
						<polygon class="st3" points="527.2,414.8 547.8,393.9 527.2,372.9 506.7,393.9 						"/>
					</g>
				</g>
				<g>
					<g>
						<polygon class="st1" points="627.7,370.4 606.1,370.4 626.3,391 629.1,393.9 650.8,393.9 650.8,393.9 						"/>
						<polygon class="st2" points="629.1,393.9 626.3,396.7 606.1,417.3 627.7,417.3 650.8,393.9 629.1,393.9 						"/>
						<polygon class="st3" points="601.2,414.8 621.8,393.9 601.2,372.9 580.7,393.9 						"/>
					</g>
				</g>
				<g>
					<g>
						<polygon class="st1" points="666.1,322.7 644.4,322.7 664.6,343.3 667.4,346.2 689.1,346.2 689.1,346.2 						"/>
						<polygon class="st2" points="667.4,346.2 664.6,349 644.4,369.7 666.1,369.7 689.1,346.2 667.4,346.2 						"/>
						<polygon class="st3" points="639.6,367.2 660.1,346.2 639.6,325.2 619,346.2 						"/>
					</g>
				</g>
				<g>
					<g>
						<polygon class="st1" points="1.2,322.7 -20.5,322.7 -0.3,343.3 2.5,346.2 24.2,346.2 24.2,346.2 						"/>
						<polygon class="st2" points="2.5,346.2 -0.3,349 -20.5,369.7 1.1,369.7 24.2,346.2 2.5,346.2 						"/>
						<polygon class="st3" points="-25.3,367.2 -4.8,346.2 -25.3,325.2 -45.9,346.2 						"/>
					</g>
				</g>
				<g>
					<g>
						<polygon class="st1" points="1.2,418.7 -20.5,418.7 -0.3,439.3 2.5,442.2 24.2,442.2 24.2,442.2 						"/>
						<polygon class="st2" points="2.5,442.2 -0.3,445 -20.5,465.7 1.1,465.7 24.2,442.2 2.5,442.2 						"/>
						<polygon class="st3" points="-25.3,463.2 -4.8,442.2 -25.3,421.2 -45.9,442.2 						"/>
					</g>
				</g>
				<g>
					<g>
						<polygon class="st1" points="1.2,515.4 -20.5,515.4 -0.3,536 2.5,538.8 24.2,538.8 24.2,538.8 						"/>
						<polygon class="st2" points="2.5,538.8 -0.3,541.7 -20.5,562.3 1.1,562.3 24.2,538.8 2.5,538.8 						"/>
						<polygon class="st3" points="-25.3,559.8 -4.8,538.8 -25.3,517.9 -45.9,538.8 						"/>
					</g>
				</g>
			</g>
			<g>
				<g>
					<g>
						<polygon class="st1" points="149.2,418.2 127.5,418.2 147.7,438.8 150.5,441.6 172.2,441.6 172.2,441.6 						"/>
						<polygon class="st2" points="150.5,441.6 147.7,444.5 127.5,465.1 149.1,465.1 172.2,441.6 150.5,441.6 						"/>
						<polygon class="st3" points="122.7,462.6 143.2,441.6 122.7,420.7 102.1,441.6 						"/>
					</g>
				</g>
				<g>
					<g>
						<polygon class="st1" points="222.9,418.2 201.2,418.2 221.4,438.8 224.3,441.6 245.9,441.6 245.9,441.6 						"/>
						<polygon class="st2" points="224.3,441.6 221.4,444.5 201.2,465.1 222.9,465.1 245.9,441.6 224.3,441.6 						"/>
						<polygon class="st3" points="196.4,462.6 217,441.6 196.4,420.7 175.8,441.6 						"/>
					</g>
				</g>
				<g>
					<g>
						<polygon class="st1" points="296.7,418.2 275,418.2 295.2,438.8 298,441.6 319.7,441.6 319.7,441.6 						"/>
						<polygon class="st2" points="298,441.6 295.2,444.5 275,465.1 296.7,465.1 319.7,441.6 298,441.6 						"/>
						<polygon class="st3" points="270.2,462.6 290.7,441.6 270.2,420.7 249.6,441.6 						"/>
					</g>
				</g>
				<g>
					<g>
						<polygon class="st1" points="370.4,418.2 348.7,418.2 369,438.8 371.8,441.6 393.4,441.6 393.4,441.6 						"/>
						<polygon class="st2" points="371.8,441.6 369,444.5 348.7,465.1 370.4,465.1 393.4,441.6 371.8,441.6 						"/>
						<polygon class="st3" points="343.9,462.6 364.5,441.6 343.9,420.7 323.3,441.6 						"/>
					</g>
				</g>
				<g>
					<g>
						<polygon class="st1" points="444.2,418.2 422.5,418.2 442.7,438.8 445.5,441.6 467.2,441.6 467.2,441.6 						"/>
						<polygon class="st2" points="445.5,441.6 442.7,444.5 422.5,465.1 444.2,465.1 467.2,441.6 445.5,441.6 						"/>
						<polygon class="st3" points="417.7,462.6 438.2,441.6 417.7,420.7 397.1,441.6 						"/>
					</g>
				</g>
				<g>
					<g>
						<polygon class="st1" points="517.9,418.2 496.2,418.2 516.5,438.8 519.3,441.6 540.9,441.6 540.9,441.6 						"/>
						<polygon class="st2" points="519.3,441.6 516.5,444.5 496.2,465.1 517.9,465.1 540.9,441.6 519.3,441.6 						"/>
						<polygon class="st3" points="491.4,462.6 512,441.6 491.4,420.7 470.9,441.6 						"/>
					</g>
				</g>
				<g>
					<g>
						<polygon class="st1" points="591.1,418.2 569.4,418.2 589.6,438.8 592.4,441.6 614.1,441.6 614.1,441.6 						"/>
						<polygon class="st2" points="592.4,441.6 589.6,444.5 569.4,465.1 591.1,465.1 614.1,441.6 592.4,441.6 						"/>
						<polygon class="st3" points="564.6,462.6 585.1,441.6 564.6,420.7 544,441.6 						"/>
					</g>
				</g>
				<g>
					<g>
						<polygon class="st1" points="74.5,418.2 52.8,418.2 73,438.8 75.8,441.6 97.5,441.6 97.5,441.6 						"/>
						<polygon class="st2" points="75.8,441.6 73,444.5 52.8,465.1 74.5,465.1 97.5,441.6 75.8,441.6 						"/>
						<polygon class="st3" points="48,462.6 68.5,441.6 48,420.7 27.4,441.6 						"/>
					</g>
				</g>
				<g>
					<g>
						<polygon class="st1" points="113.5,466 91.8,466 112,486.7 114.8,489.5 136.5,489.5 136.5,489.5 						"/>
						<polygon class="st2" points="114.8,489.5 112,492.4 91.8,513 113.5,513 136.5,489.5 114.8,489.5 						"/>
						<polygon class="st3" points="87,510.5 107.5,489.5 87,468.5 66.4,489.5 						"/>
					</g>
				</g>
				<g>
					<g>
						<polygon class="st1" points="75.5,513.7 53.8,513.7 74,534.3 76.8,537.2 98.5,537.2 98.5,537.2 						"/>
						<polygon class="st2" points="76.8,537.2 74,540.1 53.8,560.7 75.5,560.7 98.5,537.2 76.8,537.2 						"/>
						<polygon class="st3" points="49,558.2 69.5,537.2 49,516.2 28.4,537.2 						"/>
					</g>
				</g>
				<g>
					<g>
						<polygon class="st1" points="186.9,466 165.3,466 185.5,486.7 188.3,489.5 209.9,489.5 210,489.5 						"/>
						<polygon class="st2" points="188.3,489.5 185.5,492.4 165.3,513 186.9,513 209.9,489.5 188.3,489.5 						"/>
						<polygon class="st3" points="160.4,510.5 181,489.5 160.4,468.5 139.9,489.5 						"/>
					</g>
				</g>
				<g>
					<g>
						<polygon class="st1" points="260.7,466 239,466 259.2,486.7 262,489.5 283.7,489.5 283.7,489.5 						"/>
						<polygon class="st2" points="262,489.5 259.2,492.4 239,513 260.7,513 283.7,489.5 262,489.5 						"/>
						<polygon class="st3" points="234.2,510.5 254.7,489.5 234.2,468.5 213.6,489.5 						"/>
					</g>
				</g>
				<g>
					<g>
						<polygon class="st1" points="334.4,466 312.8,466 333,486.7 335.8,489.5 357.5,489.5 357.5,489.5 						"/>
						<polygon class="st2" points="335.8,489.5 333,492.4 312.8,513 334.4,513 357.5,489.5 335.8,489.5 						"/>
						<polygon class="st3" points="307.9,510.5 328.5,489.5 307.9,468.5 287.4,489.5 						"/>
					</g>
				</g>
				<g>
					<g>
						<polygon class="st1" points="408.2,466 386.5,466 406.7,486.7 409.5,489.5 431.2,489.5 431.2,489.5 						"/>
						<polygon class="st2" points="409.5,489.5 406.7,492.4 386.5,513 408.2,513 431.2,489.5 409.5,489.5 						"/>
						<polygon class="st3" points="381.7,510.5 402.3,489.5 381.7,468.5 361.1,489.5 						"/>
					</g>
				</g>
				<g>
					<g>
						<polygon class="st1" points="481.9,466 460.3,466 480.5,486.7 483.3,489.5 505,489.5 505,489.5 						"/>
						<polygon class="st2" points="483.3,489.5 480.5,492.4 460.3,513 481.9,513 505,489.5 483.3,489.5 						"/>
						<polygon class="st3" points="455.4,510.5 476,489.5 455.4,468.5 434.9,489.5 						"/>
					</g>
				</g>
				<g>
					<g>
						<polygon class="st1" points="555.7,466 534,466 554.2,486.7 557,489.5 578.7,489.5 578.7,489.5 						"/>
						<polygon class="st2" points="557,489.5 554.2,492.4 534,513 555.7,513 578.7,489.5 557,489.5 						"/>
						<polygon class="st3" points="529.2,510.5 549.8,489.5 529.2,468.5 508.6,489.5 						"/>
					</g>
				</g>
				<g>
					<g>
						<polygon class="st1" points="628.9,466 607.2,466 627.4,486.7 630.2,489.5 651.9,489.5 651.9,489.5 						"/>
						<polygon class="st2" points="630.2,489.5 627.4,492.4 607.2,513 628.8,513 651.9,489.5 630.2,489.5 						"/>
						<polygon class="st3" points="602.3,510.5 622.9,489.5 602.3,468.5 581.8,489.5 						"/>
					</g>
				</g>
				<g>
					<g>
						<polygon class="st1" points="149.2,513.7 127.5,513.7 147.7,534.3 150.5,537.2 172.2,537.2 172.2,537.2 						"/>
						<polygon class="st2" points="150.5,537.2 147.7,540.1 127.5,560.7 149.1,560.7 172.2,537.2 150.5,537.2 						"/>
						<polygon class="st3" points="122.7,558.2 143.2,537.2 122.7,516.2 102.1,537.2 						"/>
					</g>
				</g>
				<g>
					<g>
						<polygon class="st1" points="222.9,513.7 201.2,513.7 221.4,534.3 224.3,537.2 245.9,537.2 245.9,537.2 						"/>
						<polygon class="st2" points="224.3,537.2 221.4,540.1 201.2,560.7 222.9,560.7 245.9,537.2 224.3,537.2 						"/>
						<polygon class="st3" points="196.4,558.2 217,537.2 196.4,516.2 175.8,537.2 						"/>
					</g>
				</g>
				<g>
					<g>
						<polygon class="st1" points="296.7,513.7 275,513.7 295.2,534.3 298,537.2 319.7,537.2 319.7,537.2 						"/>
						<polygon class="st2" points="298,537.2 295.2,540.1 275,560.7 296.7,560.7 319.7,537.2 298,537.2 						"/>
						<polygon class="st3" points="270.2,558.2 290.7,537.2 270.2,516.2 249.6,537.2 						"/>
					</g>
				</g>
				<g>
					<g>
						<polygon class="st1" points="370.4,513.7 348.7,513.7 369,534.3 371.8,537.2 393.4,537.2 393.4,537.2 						"/>
						<polygon class="st2" points="371.8,537.2 369,540.1 348.7,560.7 370.4,560.7 393.4,537.2 371.8,537.2 						"/>
						<polygon class="st3" points="343.9,558.2 364.5,537.2 343.9,516.2 323.3,537.2 						"/>
					</g>
				</g>
				<g>
					<g>
						<polygon class="st1" points="444.2,513.7 422.5,513.7 442.7,534.3 445.5,537.2 467.2,537.2 467.2,537.2 						"/>
						<polygon class="st2" points="445.5,537.2 442.7,540.1 422.5,560.7 444.2,560.7 467.2,537.2 445.5,537.2 						"/>
						<polygon class="st3" points="417.7,558.2 438.2,537.2 417.7,516.2 397.1,537.2 						"/>
					</g>
				</g>
				<g>
					<g>
						<polygon class="st1" points="517.9,513.7 496.2,513.7 516.5,534.3 519.3,537.2 540.9,537.2 540.9,537.2 						"/>
						<polygon class="st2" points="519.3,537.2 516.5,540.1 496.2,560.7 517.9,560.7 540.9,537.2 519.3,537.2 						"/>
						<polygon class="st3" points="491.4,558.2 512,537.2 491.4,516.2 470.9,537.2 						"/>
					</g>
				</g>
				<g>
					<g>
						<polygon class="st1" points="591.1,513.7 569.4,513.7 589.6,534.3 592.4,537.2 614.1,537.2 614.1,537.2 						"/>
						<polygon class="st2" points="592.4,537.2 589.6,540.1 569.4,560.7 591.1,560.7 614.1,537.2 592.4,537.2 						"/>
						<polygon class="st3" points="564.6,558.2 585.1,537.2 564.6,516.2 544,537.2 						"/>
					</g>
				</g>
				<g>
					<g>
						<polygon class="st1" points="665.1,513.7 643.4,513.7 663.6,534.3 666.4,537.2 688.1,537.2 688.1,537.2 						"/>
						<polygon class="st2" points="666.4,537.2 663.6,540.1 643.4,560.7 665.1,560.7 688.1,537.2 666.4,537.2 						"/>
						<polygon class="st3" points="638.6,558.2 659.1,537.2 638.6,516.2 618,537.2 						"/>
					</g>
				</g>
				<g>
					<g>
						<polygon class="st1" points="40.2,466 18.5,466 38.7,486.7 41.5,489.5 63.2,489.5 63.2,489.5 						"/>
						<polygon class="st2" points="41.5,489.5 38.7,492.4 18.5,513 40.1,513 63.2,489.5 41.5,489.5 						"/>
						<polygon class="st3" points="13.7,510.5 34.2,489.5 13.7,468.5 -6.9,489.5 						"/>
					</g>
				</g>
			</g>
		</g>
		<g>
			<g>
				<g>
					<g>
						<polygon class="st1" points="111.8,566.8 90.1,566.8 110.4,587.4 113.2,590.3 134.8,590.3 134.8,590.3 						"/>
						<polygon class="st2" points="113.2,590.3 110.4,593.2 90.1,613.8 111.8,613.8 134.8,590.3 113.2,590.3 						"/>
						<polygon class="st3" points="85.3,611.3 105.9,590.3 85.3,569.3 64.8,590.3 						"/>
					</g>
				</g>
				<g>
					<g>
						<polygon class="st1" points="185.6,566.8 163.9,566.8 184.1,587.4 186.9,590.3 208.6,590.3 208.6,590.3 						"/>
						<polygon class="st2" points="186.9,590.3 184.1,593.2 163.9,613.8 185.6,613.8 208.6,590.3 186.9,590.3 						"/>
						<polygon class="st3" points="159.1,611.3 179.6,590.3 159.1,569.3 138.5,590.3 						"/>
					</g>
				</g>
				<g>
					<g>
						<polygon class="st1" points="259.3,566.8 237.7,566.8 257.9,587.4 260.7,590.3 282.3,590.3 282.3,590.3 						"/>
						<polygon class="st2" points="260.7,590.3 257.9,593.2 237.7,613.8 259.3,613.8 282.3,590.3 260.7,590.3 						"/>
						<polygon class="st3" points="232.8,611.3 253.4,590.3 232.8,569.3 212.3,590.3 						"/>
					</g>
				</g>
				<g>
					<g>
						<polygon class="st1" points="333.1,566.8 311.4,566.8 331.6,587.4 334.4,590.3 356.1,590.3 356.1,590.3 						"/>
						<polygon class="st2" points="334.4,590.3 331.6,593.2 311.4,613.8 333.1,613.8 356.1,590.3 334.4,590.3 						"/>
						<polygon class="st3" points="306.6,611.3 327.1,590.3 306.6,569.3 286,590.3 						"/>
					</g>
				</g>
				<g>
					<g>
						<polygon class="st1" points="406.8,566.8 385.2,566.8 405.4,587.4 408.2,590.3 429.8,590.3 429.9,590.3 						"/>
						<polygon class="st2" points="408.2,590.3 405.4,593.2 385.2,613.8 406.8,613.8 429.8,590.3 408.2,590.3 						"/>
						<polygon class="st3" points="380.3,611.3 400.9,590.3 380.3,569.3 359.8,590.3 						"/>
					</g>
				</g>
				<g>
					<g>
						<polygon class="st1" points="480.6,566.8 458.9,566.8 479.1,587.4 481.9,590.3 503.6,590.3 503.6,590.3 						"/>
						<polygon class="st2" points="481.9,590.3 479.1,593.2 458.9,613.8 480.6,613.8 503.6,590.3 481.9,590.3 						"/>
						<polygon class="st3" points="454.1,611.3 474.6,590.3 454.1,569.3 433.5,590.3 						"/>
					</g>
				</g>
				<g>
					<g>
						<polygon class="st1" points="553.7,566.8 532.1,566.8 552.3,587.4 555.1,590.3 576.8,590.3 576.8,590.3 						"/>
						<polygon class="st2" points="555.1,590.3 552.3,593.2 532.1,613.8 553.7,613.8 576.8,590.3 555.1,590.3 						"/>
						<polygon class="st3" points="527.2,611.3 547.8,590.3 527.2,569.3 506.7,590.3 						"/>
					</g>
				</g>
				<g>
					<g>
						<polygon class="st1" points="37.2,566.8 15.5,566.8 35.7,587.4 38.5,590.3 60.2,590.3 60.2,590.3 						"/>
						<polygon class="st2" points="38.5,590.3 35.7,593.2 15.5,613.8 37.1,613.8 60.2,590.3 38.5,590.3 						"/>
						<polygon class="st3" points="10.6,611.3 31.2,590.3 10.6,569.3 -9.9,590.3 						"/>
					</g>
				</g>
				<g>
					<g>
						<polygon class="st1" points="629.7,566.8 608.1,566.8 628.3,587.4 631.1,590.3 652.8,590.3 652.8,590.3 						"/>
						<polygon class="st2" points="631.1,590.3 628.3,593.2 608.1,613.8 629.7,613.8 652.8,590.3 631.1,590.3 						"/>
						<polygon class="st3" points="603.2,611.3 623.8,590.3 603.2,569.3 582.7,590.3 						"/>
					</g>
				</g>
				<g>
					<g>
						<polygon class="st1" points="76.2,614.7 54.5,614.7 74.7,635.3 77.5,638.2 99.2,638.2 99.2,638.2 						"/>
						<polygon class="st2" points="77.5,638.2 74.7,641 54.5,661.7 76.1,661.7 99.2,638.2 77.5,638.2 						"/>
						<polygon class="st3" points="49.6,659.2 70.2,638.2 49.6,617.2 29.1,638.2 						"/>
					</g>
				</g>
				<g>
					<g>
						<polygon class="st1" points="38.2,662.4 16.5,662.4 36.7,683 39.5,685.9 61.2,685.9 61.2,685.9 						"/>
						<polygon class="st2" points="39.5,685.9 36.7,688.7 16.5,709.3 38.1,709.3 61.2,685.9 39.5,685.9 						"/>
						<polygon class="st3" points="11.6,706.8 32.2,685.9 11.6,664.9 -8.9,685.9 						"/>
					</g>
				</g>
				<g>
					<g>
						<polygon class="st1" points="149.6,614.7 127.9,614.7 148.1,635.3 150.9,638.2 172.6,638.2 172.6,638.2 						"/>
						<polygon class="st2" points="150.9,638.2 148.1,641 127.9,661.7 149.6,661.7 172.6,638.2 150.9,638.2 						"/>
						<polygon class="st3" points="123.1,659.2 143.7,638.2 123.1,617.2 102.5,638.2 						"/>
					</g>
				</g>
				<g>
					<g>
						<polygon class="st1" points="223.4,614.7 201.7,614.7 221.9,635.3 224.7,638.2 246.4,638.2 246.4,638.2 						"/>
						<polygon class="st2" points="224.7,638.2 221.9,641 201.7,661.7 223.3,661.7 246.4,638.2 224.7,638.2 						"/>
						<polygon class="st3" points="196.8,659.2 217.4,638.2 196.8,617.2 176.3,638.2 						"/>
					</g>
				</g>
				<g>
					<g>
						<polygon class="st1" points="297.1,614.7 275.4,614.7 295.6,635.3 298.5,638.2 320.1,638.2 320.1,638.2 						"/>
						<polygon class="st2" points="298.5,638.2 295.6,641 275.4,661.7 297.1,661.7 320.1,638.2 298.5,638.2 						"/>
						<polygon class="st3" points="270.6,659.2 291.2,638.2 270.6,617.2 250,638.2 						"/>
					</g>
				</g>
				<g>
					<g>
						<polygon class="st1" points="370.9,614.7 349.2,614.7 369.4,635.3 372.2,638.2 393.9,638.2 393.9,638.2 						"/>
						<polygon class="st2" points="372.2,638.2 369.4,641 349.2,661.7 370.8,661.7 393.9,638.2 372.2,638.2 						"/>
						<polygon class="st3" points="344.4,659.2 364.9,638.2 344.4,617.2 323.8,638.2 						"/>
					</g>
				</g>
				<g>
					<g>
						<polygon class="st1" points="444.6,614.7 422.9,614.7 443.2,635.3 446,638.2 467.6,638.2 467.6,638.2 						"/>
						<polygon class="st2" points="446,638.2 443.2,641 422.9,661.7 444.6,661.7 467.6,638.2 446,638.2 						"/>
						<polygon class="st3" points="418.1,659.2 438.7,638.2 418.1,617.2 397.5,638.2 						"/>
					</g>
				</g>
				<g>
					<g>
						<polygon class="st1" points="518.4,614.7 496.7,614.7 516.9,635.3 519.7,638.2 541.4,638.2 541.4,638.2 						"/>
						<polygon class="st2" points="519.7,638.2 516.9,641 496.7,661.7 518.4,661.7 541.4,638.2 519.7,638.2 						"/>
						<polygon class="st3" points="491.9,659.2 512.4,638.2 491.9,617.2 471.3,638.2 						"/>
					</g>
				</g>
				<g>
					<g>
						<polygon class="st1" points="591.5,614.7 569.8,614.7 590.1,635.3 592.9,638.2 614.5,638.2 614.5,638.2 						"/>
						<polygon class="st2" points="592.9,638.2 590.1,641 569.8,661.7 591.5,661.7 614.5,638.2 592.9,638.2 						"/>
						<polygon class="st3" points="565,659.2 585.6,638.2 565,617.2 544.5,638.2 						"/>
					</g>
				</g>
				<g>
					<g>
						<polygon class="st1" points="111.8,662.4 90.1,662.4 110.4,683 113.2,685.9 134.8,685.9 134.8,685.9 						"/>
						<polygon class="st2" points="113.2,685.9 110.4,688.7 90.1,709.3 111.8,709.3 134.8,685.9 113.2,685.9 						"/>
						<polygon class="st3" points="85.3,706.8 105.9,685.9 85.3,664.9 64.8,685.9 						"/>
					</g>
				</g>
				<g>
					<g>
						<polygon class="st1" points="185.6,662.4 163.9,662.4 184.1,683 186.9,685.9 208.6,685.9 208.6,685.9 						"/>
						<polygon class="st2" points="186.9,685.9 184.1,688.7 163.9,709.3 185.6,709.3 208.6,685.9 186.9,685.9 						"/>
						<polygon class="st3" points="159.1,706.8 179.6,685.9 159.1,664.9 138.5,685.9 						"/>
					</g>
				</g>
				<g>
					<g>
						<polygon class="st1" points="259.3,662.4 237.7,662.4 257.9,683 260.7,685.9 282.3,685.9 282.3,685.9 						"/>
						<polygon class="st2" points="260.7,685.9 257.9,688.7 237.7,709.3 259.3,709.3 282.3,685.9 260.7,685.9 						"/>
						<polygon class="st3" points="232.8,706.8 253.4,685.9 232.8,664.9 212.3,685.9 						"/>
					</g>
				</g>
				<g>
					<g>
						<polygon class="st1" points="333.1,662.4 311.4,662.4 331.6,683 334.4,685.9 356.1,685.9 356.1,685.9 						"/>
						<polygon class="st2" points="334.4,685.9 331.6,688.7 311.4,709.3 333.1,709.3 356.1,685.9 334.4,685.9 						"/>
						<polygon class="st3" points="306.6,706.8 327.1,685.9 306.6,664.9 286,685.9 						"/>
					</g>
				</g>
				<g>
					<g>
						<polygon class="st1" points="406.8,662.4 385.2,662.4 405.4,683 408.2,685.9 429.8,685.9 429.9,685.9 						"/>
						<polygon class="st2" points="408.2,685.9 405.4,688.7 385.2,709.3 406.8,709.3 429.8,685.9 408.2,685.9 						"/>
						<polygon class="st3" points="380.3,706.8 400.9,685.9 380.3,664.9 359.8,685.9 						"/>
					</g>
				</g>
				<g>
					<g>
						<polygon class="st1" points="480.6,662.4 458.9,662.4 479.1,683 481.9,685.9 503.6,685.9 503.6,685.9 						"/>
						<polygon class="st2" points="481.9,685.9 479.1,688.7 458.9,709.3 480.6,709.3 503.6,685.9 481.9,685.9 						"/>
						<polygon class="st3" points="454.1,706.8 474.6,685.9 454.1,664.9 433.5,685.9 						"/>
					</g>
				</g>
				<g>
					<g>
						<polygon class="st1" points="553.7,662.4 532.1,662.4 552.3,683 555.1,685.9 576.8,685.9 576.8,685.9 						"/>
						<polygon class="st2" points="555.1,685.9 552.3,688.7 532.1,709.3 553.7,709.3 576.8,685.9 555.1,685.9 						"/>
						<polygon class="st3" points="527.2,706.8 547.8,685.9 527.2,664.9 506.7,685.9 						"/>
					</g>
				</g>
				<g>
					<g>
						<polygon class="st1" points="627.7,662.4 606.1,662.4 626.3,683 629.1,685.9 650.8,685.9 650.8,685.9 						"/>
						<polygon class="st2" points="629.1,685.9 626.3,688.7 606.1,709.3 627.7,709.3 650.8,685.9 629.1,685.9 						"/>
						<polygon class="st3" points="601.2,706.8 621.8,685.9 601.2,664.9 580.7,685.9 						"/>
					</g>
				</g>
				<g>
					<g>
						<polygon class="st1" points="666.1,614.7 644.4,614.7 664.6,635.3 667.4,638.2 689.1,638.2 689.1,638.2 						"/>
						<polygon class="st2" points="667.4,638.2 664.6,641 644.4,661.7 666.1,661.7 689.1,638.2 667.4,638.2 						"/>
						<polygon class="st3" points="639.6,659.2 660.1,638.2 639.6,617.2 619,638.2 						"/>
					</g>
				</g>
				<g>
					<g>
						<polygon class="st1" points="1.2,614.7 -20.5,614.7 -0.3,635.3 2.5,638.2 24.2,638.2 24.2,638.2 						"/>
						<polygon class="st2" points="2.5,638.2 -0.3,641 -20.5,661.7 1.1,661.7 24.2,638.2 2.5,638.2 						"/>
						<polygon class="st3" points="-25.3,659.2 -4.8,638.2 -25.3,617.2 -45.9,638.2 						"/>
					</g>
				</g>
				<g>
					<g>
						<polygon class="st1" points="1.2,710.7 -20.5,710.7 -0.3,731.3 2.5,734.2 24.2,734.2 24.2,734.2 						"/>
						<polygon class="st2" points="2.5,734.2 -0.3,737 -20.5,757.7 1.1,757.7 24.2,734.2 2.5,734.2 						"/>
						<polygon class="st3" points="-25.3,755.2 -4.8,734.2 -25.3,713.2 -45.9,734.2 						"/>
					</g>
				</g>
				<g>
					<g>
						<polygon class="st1" points="1.2,807.4 -20.5,807.4 -0.3,828 2.5,830.8 24.2,830.8 24.2,830.8 						"/>
						<polygon class="st2" points="2.5,830.8 -0.3,833.7 -20.5,854.3 1.1,854.3 24.2,830.8 2.5,830.8 						"/>
						<polygon class="st3" points="-25.3,851.8 -4.8,830.8 -25.3,809.9 -45.9,830.8 						"/>
					</g>
				</g>
			</g>
			<g>
				<g>
					<g>
						<polygon class="st1" points="149.2,710.2 127.5,710.2 147.7,730.8 150.5,733.6 172.2,733.6 172.2,733.6 						"/>
						<polygon class="st2" points="150.5,733.6 147.7,736.5 127.5,757.1 149.1,757.1 172.2,733.6 150.5,733.6 						"/>
						<polygon class="st3" points="122.7,754.6 143.2,733.6 122.7,712.7 102.1,733.6 						"/>
					</g>
				</g>
				<g>
					<g>
						<polygon class="st1" points="222.9,710.2 201.2,710.2 221.4,730.8 224.3,733.6 245.9,733.6 245.9,733.6 						"/>
						<polygon class="st2" points="224.3,733.6 221.4,736.5 201.2,757.1 222.9,757.1 245.9,733.6 224.3,733.6 						"/>
						<polygon class="st3" points="196.4,754.6 217,733.6 196.4,712.7 175.8,733.6 						"/>
					</g>
				</g>
				<g>
					<g>
						<polygon class="st1" points="296.7,710.2 275,710.2 295.2,730.8 298,733.6 319.7,733.6 319.7,733.6 						"/>
						<polygon class="st2" points="298,733.6 295.2,736.5 275,757.1 296.7,757.1 319.7,733.6 298,733.6 						"/>
						<polygon class="st3" points="270.2,754.6 290.7,733.6 270.2,712.7 249.6,733.6 						"/>
					</g>
				</g>
				<g>
					<g>
						<polygon class="st1" points="370.4,710.2 348.7,710.2 369,730.8 371.8,733.6 393.4,733.6 393.4,733.6 						"/>
						<polygon class="st2" points="371.8,733.6 369,736.5 348.7,757.1 370.4,757.1 393.4,733.6 371.8,733.6 						"/>
						<polygon class="st3" points="343.9,754.6 364.5,733.6 343.9,712.7 323.3,733.6 						"/>
					</g>
				</g>
				<g>
					<g>
						<polygon class="st1" points="444.2,710.2 422.5,710.2 442.7,730.8 445.5,733.6 467.2,733.6 467.2,733.6 						"/>
						<polygon class="st2" points="445.5,733.6 442.7,736.5 422.5,757.1 444.2,757.1 467.2,733.6 445.5,733.6 						"/>
						<polygon class="st3" points="417.7,754.6 438.2,733.6 417.7,712.7 397.1,733.6 						"/>
					</g>
				</g>
				<g>
					<g>
						<polygon class="st1" points="517.9,710.2 496.2,710.2 516.5,730.8 519.3,733.6 540.9,733.6 540.9,733.6 						"/>
						<polygon class="st2" points="519.3,733.6 516.5,736.5 496.2,757.1 517.9,757.1 540.9,733.6 519.3,733.6 						"/>
						<polygon class="st3" points="491.4,754.6 512,733.6 491.4,712.7 470.9,733.6 						"/>
					</g>
				</g>
				<g>
					<g>
						<polygon class="st1" points="591.1,710.2 569.4,710.2 589.6,730.8 592.4,733.6 614.1,733.6 614.1,733.6 						"/>
						<polygon class="st2" points="592.4,733.6 589.6,736.5 569.4,757.1 591.1,757.1 614.1,733.6 592.4,733.6 						"/>
						<polygon class="st3" points="564.6,754.6 585.1,733.6 564.6,712.7 544,733.6 						"/>
					</g>
				</g>
				<g>
					<g>
						<polygon class="st1" points="74.5,710.2 52.8,710.2 73,730.8 75.8,733.6 97.5,733.6 97.5,733.6 						"/>
						<polygon class="st2" points="75.8,733.6 73,736.5 52.8,757.1 74.5,757.1 97.5,733.6 75.8,733.6 						"/>
						<polygon class="st3" points="48,754.6 68.5,733.6 48,712.7 27.4,733.6 						"/>
					</g>
				</g>
				<g>
					<g>
						<polygon class="st1" points="113.5,758 91.8,758 112,778.7 114.8,781.5 136.5,781.5 136.5,781.5 						"/>
						<polygon class="st2" points="114.8,781.5 112,784.4 91.8,805 113.5,805 136.5,781.5 114.8,781.5 						"/>
						<polygon class="st3" points="87,802.5 107.5,781.5 87,760.5 66.4,781.5 						"/>
					</g>
				</g>
				<g>
					<g>
						<polygon class="st1" points="75.5,805.7 53.8,805.7 74,826.3 76.8,829.2 98.5,829.2 98.5,829.2 						"/>
						<polygon class="st2" points="76.8,829.2 74,832.1 53.8,852.7 75.5,852.7 98.5,829.2 76.8,829.2 						"/>
						<polygon class="st3" points="49,850.2 69.5,829.2 49,808.2 28.4,829.2 						"/>
					</g>
				</g>
				<g>
					<g>
						<polygon class="st1" points="186.9,758 165.3,758 185.5,778.7 188.3,781.5 209.9,781.5 210,781.5 						"/>
						<polygon class="st2" points="188.3,781.5 185.5,784.4 165.3,805 186.9,805 209.9,781.5 188.3,781.5 						"/>
						<polygon class="st3" points="160.4,802.5 181,781.5 160.4,760.5 139.9,781.5 						"/>
					</g>
				</g>
				<g>
					<g>
						<polygon class="st1" points="260.7,758 239,758 259.2,778.7 262,781.5 283.7,781.5 283.7,781.5 						"/>
						<polygon class="st2" points="262,781.5 259.2,784.4 239,805 260.7,805 283.7,781.5 262,781.5 						"/>
						<polygon class="st3" points="234.2,802.5 254.7,781.5 234.2,760.5 213.6,781.5 						"/>
					</g>
				</g>
				<g>
					<g>
						<polygon class="st1" points="334.4,758 312.8,758 333,778.7 335.8,781.5 357.5,781.5 357.5,781.5 						"/>
						<polygon class="st2" points="335.8,781.5 333,784.4 312.8,805 334.4,805 357.5,781.5 335.8,781.5 						"/>
						<polygon class="st3" points="307.9,802.5 328.5,781.5 307.9,760.5 287.4,781.5 						"/>
					</g>
				</g>
				<g>
					<g>
						<polygon class="st1" points="408.2,758 386.5,758 406.7,778.7 409.5,781.5 431.2,781.5 431.2,781.5 						"/>
						<polygon class="st2" points="409.5,781.5 406.7,784.4 386.5,805 408.2,805 431.2,781.5 409.5,781.5 						"/>
						<polygon class="st3" points="381.7,802.5 402.3,781.5 381.7,760.5 361.1,781.5 						"/>
					</g>
				</g>
				<g>
					<g>
						<polygon class="st1" points="481.9,758 460.3,758 480.5,778.7 483.3,781.5 505,781.5 505,781.5 						"/>
						<polygon class="st2" points="483.3,781.5 480.5,784.4 460.3,805 481.9,805 505,781.5 483.3,781.5 						"/>
						<polygon class="st3" points="455.4,802.5 476,781.5 455.4,760.5 434.9,781.5 						"/>
					</g>
				</g>
				<g>
					<g>
						<polygon class="st1" points="555.7,758 534,758 554.2,778.7 557,781.5 578.7,781.5 578.7,781.5 						"/>
						<polygon class="st2" points="557,781.5 554.2,784.4 534,805 555.7,805 578.7,781.5 557,781.5 						"/>
						<polygon class="st3" points="529.2,802.5 549.8,781.5 529.2,760.5 508.6,781.5 						"/>
					</g>
				</g>
				<g>
					<g>
						<polygon class="st1" points="628.9,758 607.2,758 627.4,778.7 630.2,781.5 651.9,781.5 651.9,781.5 						"/>
						<polygon class="st2" points="630.2,781.5 627.4,784.4 607.2,805 628.8,805 651.9,781.5 630.2,781.5 						"/>
						<polygon class="st3" points="602.3,802.5 622.9,781.5 602.3,760.5 581.8,781.5 						"/>
					</g>
				</g>
				<g>
					<g>
						<polygon class="st1" points="149.2,805.7 127.5,805.7 147.7,826.3 150.5,829.2 172.2,829.2 172.2,829.2 						"/>
						<polygon class="st2" points="150.5,829.2 147.7,832.1 127.5,852.7 149.1,852.7 172.2,829.2 150.5,829.2 						"/>
						<polygon class="st3" points="122.7,850.2 143.2,829.2 122.7,808.2 102.1,829.2 						"/>
					</g>
				</g>
				<g>
					<g>
						<polygon class="st1" points="222.9,805.7 201.2,805.7 221.4,826.3 224.3,829.2 245.9,829.2 245.9,829.2 						"/>
						<polygon class="st2" points="224.3,829.2 221.4,832.1 201.2,852.7 222.9,852.7 245.9,829.2 224.3,829.2 						"/>
						<polygon class="st3" points="196.4,850.2 217,829.2 196.4,808.2 175.8,829.2 						"/>
					</g>
				</g>
				<g>
					<g>
						<polygon class="st1" points="296.7,805.7 275,805.7 295.2,826.3 298,829.2 319.7,829.2 319.7,829.2 						"/>
						<polygon class="st2" points="298,829.2 295.2,832.1 275,852.7 296.7,852.7 319.7,829.2 298,829.2 						"/>
						<polygon class="st3" points="270.2,850.2 290.7,829.2 270.2,808.2 249.6,829.2 						"/>
					</g>
				</g>
				<g>
					<g>
						<polygon class="st1" points="370.4,805.7 348.7,805.7 369,826.3 371.8,829.2 393.4,829.2 393.4,829.2 						"/>
						<polygon class="st2" points="371.8,829.2 369,832.1 348.7,852.7 370.4,852.7 393.4,829.2 371.8,829.2 						"/>
						<polygon class="st3" points="343.9,850.2 364.5,829.2 343.9,808.2 323.3,829.2 						"/>
					</g>
				</g>
				<g>
					<g>
						<polygon class="st1" points="444.2,805.7 422.5,805.7 442.7,826.3 445.5,829.2 467.2,829.2 467.2,829.2 						"/>
						<polygon class="st2" points="445.5,829.2 442.7,832.1 422.5,852.7 444.2,852.7 467.2,829.2 445.5,829.2 						"/>
						<polygon class="st3" points="417.7,850.2 438.2,829.2 417.7,808.2 397.1,829.2 						"/>
					</g>
				</g>
				<g>
					<g>
						<polygon class="st1" points="517.9,805.7 496.2,805.7 516.5,826.3 519.3,829.2 540.9,829.2 540.9,829.2 						"/>
						<polygon class="st2" points="519.3,829.2 516.5,832.1 496.2,852.7 517.9,852.7 540.9,829.2 519.3,829.2 						"/>
						<polygon class="st3" points="491.4,850.2 512,829.2 491.4,808.2 470.9,829.2 						"/>
					</g>
				</g>
				<g>
					<g>
						<polygon class="st1" points="591.1,805.7 569.4,805.7 589.6,826.3 592.4,829.2 614.1,829.2 614.1,829.2 						"/>
						<polygon class="st2" points="592.4,829.2 589.6,832.1 569.4,852.7 591.1,852.7 614.1,829.2 592.4,829.2 						"/>
						<polygon class="st3" points="564.6,850.2 585.1,829.2 564.6,808.2 544,829.2 						"/>
					</g>
				</g>
				<g>
					<g>
						<polygon class="st1" points="665.1,805.7 643.4,805.7 663.6,826.3 666.4,829.2 688.1,829.2 688.1,829.2 						"/>
						<polygon class="st2" points="666.4,829.2 663.6,832.1 643.4,852.7 665.1,852.7 688.1,829.2 666.4,829.2 						"/>
						<polygon class="st3" points="638.6,850.2 659.1,829.2 638.6,808.2 618,829.2 						"/>
					</g>
				</g>
				<g>
					<g>
						<polygon class="st1" points="40.2,758 18.5,758 38.7,778.7 41.5,781.5 63.2,781.5 63.2,781.5 						"/>
						<polygon class="st2" points="41.5,781.5 38.7,784.4 18.5,805 40.1,805 63.2,781.5 41.5,781.5 						"/>
						<polygon class="st3" points="13.7,802.5 34.2,781.5 13.7,760.5 -6.9,781.5 						"/>
					</g>
				</g>
			</g>
		</g>
	</g>
</g>
</svg>
