<?xml version="1.0" encoding="utf-8"?>
<!-- Generator: Adobe Illustrator 24.1.2, SVG Export Plug-In . SVG Version: 6.00 Build 0)  -->
<svg version="1.1" id="Layer_1" xmlns="http://www.w3.org/2000/svg" xmlns:xlink="http://www.w3.org/1999/xlink" x="0px" y="0px"
	 viewBox="0 0 72 72" style="enable-background:new 0 0 72 72;" xml:space="preserve">
<style type="text/css">
	.st0{fill:#FFFFFF;}
	.st1{fill:#44546A;}
	.st2{fill:#168BCD;}
	.st3{fill:#EE9F2D;}
</style>
<g id="Layer_2_1_">
	<g id="Layer_1-2">
		<circle class="st0" cx="36" cy="36" r="36"/>
		<polygon class="st1" points="48.8,35.3 48.8,23.2 37.6,34.5 36,36 36,48 36,48 		"/>
		<polygon class="st2" points="36,36 34.4,34.5 23.2,23.2 23.2,35.3 36,48 36,36 		"/>
		<polygon class="st1" points="23.2,48.8 23.2,60.8 34.4,49.6 36,48.1 36,36 36,36 		"/>
		<polygon class="st2" points="36,48.1 37.6,49.6 48.8,60.8 48.8,48.8 36,36 36,48.1 		"/>
		
			<rect x="27.9" y="12.5" transform="matrix(0.7071 -0.7071 0.7071 0.7071 -4.0003 31.4812)" class="st3" width="16.1" height="16.1"/>
	</g>
</g>
</svg>
