<svg xmlns="http://www.w3.org/2000/svg" viewBox="0 0 72 72"> <defs> <style>.cls-1{fill:#fff;}.cls-2{fill:#589ad3;}.cls-3{fill:#116cb4;}.cls-4{fill:#72c068;}</style> </defs> <title>sourcing-icon</title> <g id="Layer_2"> <g id="Layer_1-2"> <circle class="cls-1" cx="36" cy="36" r="36"></circle> <polygon class="cls-2" points="48.77 35.27 48.77 23.25 37.56 34.45 36 36.01 36 48.02 36 48.03 48.77 35.27"></polygon> <polygon class="cls-3" points="36 36.01 34.44 34.45 23.23 23.25 23.23 35.26 36 48.02 36 36.01 36 36.01"></polygon> <polygon class="cls-2" points="23.23 48.81 23.23 60.83 34.44 49.62 36 48.07 36 36.05 36 36.05 23.23 48.81"></polygon> <polygon class="cls-3" points="36 48.07 37.56 49.62 48.77 60.83 48.77 48.82 36 36.05 36 48.07 36 48.07"></polygon> <rect class="cls-4" x="27.94" y="12.51" width="16.12" height="16.12" transform="translate(-4 31.48) rotate(-45)"></rect> </g> </g> </svg>