<?xml version="1.0" encoding="utf-8"?>
<!-- Generator: Adobe Illustrator 24.1.2, SVG Export Plug-In . SVG Version: 6.00 Build 0)  -->
<svg version="1.1"
	 id="svg3749" xmlns:cc="http://creativecommons.org/ns#" xmlns:dc="http://purl.org/dc/elements/1.1/" xmlns:inkscape="http://www.inkscape.org/namespaces/inkscape" xmlns:rdf="http://www.w3.org/1999/02/22-rdf-syntax-ns#" xmlns:sodipodi="http://sodipodi.sourceforge.net/DTD/sodipodi-0.dtd" xmlns:svg="http://www.w3.org/2000/svg"
	 xmlns="http://www.w3.org/2000/svg" xmlns:xlink="http://www.w3.org/1999/xlink" x="0px" y="0px" viewBox="0 0 102.1 74"
	 style="enable-background:new 0 0 102.1 74;" xml:space="preserve">
<style type="text/css">
	.st0{fill:#E8E8E8;}
</style>
<sodipodi:namedview  bordercolor="#666666" borderopacity="1" gridtolerance="10" guidetolerance="10" id="namedview3751" inkscape:current-layer="svg3749" inkscape:cx="77.840839" inkscape:cy="63.94119" inkscape:pageopacity="0" inkscape:pageshadow="2" inkscape:window-height="705" inkscape:window-maximized="1" inkscape:window-width="1366" inkscape:window-x="-8" inkscape:window-y="305" inkscape:zoom="3.2466488" objecttolerance="10" pagecolor="#ffffff" showgrid="false">
	</sodipodi:namedview>
<g id="Layer_2_1_">
	<g id="Layer_1-2">
		<g id="Apex_Logo">
			<path class="st0" d="M24.4,20c0,0,10.4-9.5,26.3-9.5s27,9.5,27,9.5H24.4z"/>
			<path class="st0" d="M23.1,20.9h55.8c0,0,4.7,4.4,6.1,6.6H17.2C17.2,27.5,20.2,23.2,23.1,20.9z"/>
			<path class="st0" d="M16.3,28.6h69.5c0,0,3.1,4.6,3.3,5.9H56.9l-6.2-3.8l-5.9,3.8H12.9C12.9,34.5,14.6,30.8,16.3,28.6z"/>
			<path class="st0" d="M12.4,35.5H43l-7.6,4.7H10.6C10.6,40.2,11.5,37.2,12.4,35.5z"/>
			<path class="st0" d="M10.3,41.3h23.4l-5.7,3.6H9.5C9.6,43.7,9.9,42.5,10.3,41.3z"/>
			<path class="st0" d="M9.2,45.9h16.9l-3.2,2H9C9,47.2,9.1,46.5,9.2,45.9z"/>
			<path class="st0" d="M8.9,48.9h12.4L19,50.3H8.7C8.7,50.3,8.7,50.2,8.9,48.9z"/>
			<polygon class="st0" points="8.7,51.3 17.4,51.3 15.4,52.6 8.7,52.6 			"/>
			<polygon class="st0" points="8.7,53.5 13.8,53.5 12.4,54.4 8.7,54.4 			"/>
			<polygon class="st0" points="8.7,55.3 10.8,55.3 8.7,56.6 			"/>
			<polygon class="st0" points="10.5,56.6 50.8,43.4 91.3,56.6 			"/>
			<path class="st0" d="M89.7,35.5h-31l7.8,4.8h25.1C91.1,38.7,90.4,37.1,89.7,35.5z"/>
			<path class="st0" d="M68,41.2h23.8c0,0,0.6,2.3,0.8,3.5H73.9L68,41.2z"/>
			<path class="st0" d="M76.1,45.9h16.7c0.2,0.6,0.3,1.2,0.4,1.8H79.1L76.1,45.9z"/>
			<path class="st0" d="M81,48.9h12.2c0,0,0.2,0.8,0.2,1.3H83.1L81,48.9z"/>
			<polygon class="st0" points="85.1,51.4 93.4,51.4 93.4,52.6 87,52.6 			"/>
			<polygon class="st0" points="88.7,53.6 93.4,53.6 93.4,54.5 90.2,54.5 			"/>
			<polygon class="st0" points="91.8,55.4 93.4,55.4 93.4,56.6 			"/>
		</g>
	</g>
</g>
</svg>
