<?xml version="1.0" encoding="utf-8"?>
<!-- Generator: Adobe Illustrator 24.1.2, SVG Export Plug-In . SVG Version: 6.00 Build 0)  -->
<svg version="1.1" id="Layer_1" xmlns="http://www.w3.org/2000/svg" xmlns:xlink="http://www.w3.org/1999/xlink" x="0px" y="0px"
	 viewBox="0 0 72 72" style="enable-background:new 0 0 72 72;" xml:space="preserve">
<style type="text/css">
	.st0{fill:#FFFFFF;}
	.st1{fill:#44546A;}
	.st2{fill:#168BCD;}
	.st3{fill:#EE9F2D;}
</style>
<g id="Layer_2_1_">
	<g id="Layer_1-2">
		<circle class="st0" cx="36" cy="36" r="36"/>
		
			<rect x="46.7" y="42.1" transform="matrix(0.7071 -0.7071 0.7071 0.7071 -20.5487 49.3397)" class="st1" width="5.1" height="14.8"/>
		<path class="st2" d="M33.6,22.6c6,0,10.8,4.8,10.8,10.8c0,6-4.8,10.8-10.8,10.8c-6,0-10.8-4.8-10.8-10.8
			C22.8,27.4,27.6,22.6,33.6,22.6 M33.6,17.5c-8.8,0-15.9,7.1-15.9,15.9c0,8.8,7.1,15.9,15.9,15.9s15.9-7.1,15.9-15.9c0,0,0,0,0,0
			C49.4,24.6,42.3,17.5,33.6,17.5z"/>
		<rect x="27.6" y="27.4" transform="matrix(0.7071 -0.7071 0.7071 0.7071 -13.7646 33.5007)" class="st3" width="12" height="12"/>
	</g>
</g>
</svg>
